<?xml version="1.0" encoding="iso-8859-1"?>
<!-- Generator: Adobe Illustrator 21.0.0, SVG Export Plug-In . SVG Version: 6.00 Build 0)  -->
<!DOCTYPE svg PUBLIC "-//W3C//DTD SVG 1.1//EN" "http://www.w3.org/Graphics/SVG/1.1/DTD/svg11.dtd">
<svg version="1.1" id="Layer_1" xmlns="http://www.w3.org/2000/svg" xmlns:xlink="http://www.w3.org/1999/xlink" x="0px" y="0px"
	 viewBox="0 0 266 171" style="enable-background:new 0 0 266 171;" xml:space="preserve">
<g>
	<defs>
		<rect id="SVGID_1_" width="266" height="171"/>
	</defs>
	<clipPath id="SVGID_2_">
		<use xlink:href="#SVGID_1_"  style="overflow:visible;"/>
	</clipPath>
	<path style="clip-path:url(#SVGID_2_);fill:#FFFFFF;" d="M75.986,122.932c0-0.768-0.025-2.193-0.235-2.564
		c-0.088-0.151-0.311-0.237-0.62-0.262l-0.31-0.024c-0.074-0.088-0.05-0.248,0.024-0.298c0.472,0.025,0.93,0.037,1.413,0.037
		c0.521,0,0.855-0.012,1.302-0.037c0.099,0.062,0.086,0.222,0.025,0.298l-0.298,0.024c-0.31,0.025-0.545,0.137-0.62,0.299
		c-0.172,0.408-0.172,1.832-0.172,2.527v1.402c0,1.077-0.174,2.217-0.869,2.959c-0.533,0.584-1.451,0.907-2.367,0.907
		c-0.855,0-1.71-0.163-2.317-0.682c-0.656-0.545-0.967-1.449-0.967-2.924v-2.926c0-1.289-0.024-1.5-0.744-1.562l-0.308-0.024
		c-0.075-0.05-0.05-0.261,0.024-0.298c0.619,0.025,1.041,0.037,1.536,0.037c0.509,0,0.918-0.012,1.524-0.037
		c0.075,0.037,0.1,0.248,0.026,0.298l-0.298,0.024c-0.719,0.062-0.743,0.273-0.743,1.562v2.678c0,1.994,0.619,3.307,2.515,3.307
		c1.797,0,2.479-1.41,2.479-3.295V122.932z"/>
	<path style="clip-path:url(#SVGID_2_);fill:#FFFFFF;" d="M92.179,125.895c0,0.371,0,1.846,0.037,2.168
		c-0.024,0.074-0.099,0.137-0.235,0.137c-0.148-0.211-0.508-0.645-1.585-1.871l-2.876-3.272c-0.335-0.385-1.177-1.4-1.438-1.674
		h-0.024c-0.05,0.149-0.063,0.436-0.063,0.805v2.701c0,0.584,0.013,2.195,0.224,2.567c0.074,0.136,0.322,0.21,0.633,0.234
		l0.383,0.039c0.074,0.098,0.062,0.246-0.025,0.309c-0.557-0.024-0.991-0.038-1.45-0.038c-0.52,0-0.854,0.014-1.289,0.038
		c-0.087-0.063-0.099-0.235-0.024-0.309l0.334-0.039c0.286-0.037,0.484-0.111,0.545-0.248c0.174-0.443,0.162-1.957,0.162-2.553
		v-3.58c0-0.348-0.012-0.607-0.273-0.893c-0.174-0.173-0.472-0.259-0.768-0.296l-0.21-0.026c-0.075-0.074-0.075-0.26,0.023-0.31
		c0.521,0.037,1.179,0.037,1.4,0.037c0.2,0,0.41-0.012,0.571-0.037c0.248,0.632,1.711,2.269,2.119,2.726l1.202,1.352
		c0.856,0.953,1.463,1.648,2.046,2.244h0.024c0.05-0.063,0.05-0.262,0.05-0.522v-2.652c0-0.582-0.013-2.193-0.248-2.564
		c-0.074-0.114-0.273-0.188-0.769-0.248l-0.21-0.026c-0.086-0.074-0.075-0.273,0.025-0.31c0.569,0.025,0.991,0.037,1.462,0.037
		c0.532,0,0.855-0.012,1.275-0.037c0.1,0.062,0.1,0.236,0.026,0.31l-0.173,0.026c-0.397,0.06-0.645,0.16-0.694,0.259
		c-0.211,0.448-0.187,1.983-0.187,2.553V125.895z"/>
	<path style="clip-path:url(#SVGID_2_);fill:#FFFFFF;" d="M101.41,121.705c0-1.314-0.025-1.525-0.756-1.586l-0.31-0.025
		c-0.075-0.051-0.049-0.274,0.025-0.311c0.619,0.026,1.041,0.037,1.562,0.037c0.495,0,0.916-0.011,1.536-0.037
		c0.074,0.037,0.098,0.26,0.024,0.311l-0.309,0.025c-0.731,0.061-0.756,0.272-0.756,1.586v4.412c0,1.313,0.025,1.486,0.756,1.572
		l0.309,0.039c0.074,0.049,0.05,0.272-0.024,0.309c-0.62-0.023-1.041-0.037-1.536-0.037c-0.521,0-0.943,0.014-1.562,0.037
		c-0.074-0.037-0.1-0.234-0.025-0.309l0.31-0.039c0.731-0.086,0.756-0.259,0.756-1.572V121.705z"/>
	<path style="clip-path:url(#SVGID_2_);fill:#FFFFFF;" d="M111.446,121.135c-0.285-0.693-0.471-0.955-1.004-1.016l-0.224-0.025
		c-0.085-0.074-0.074-0.248,0.026-0.311c0.359,0.026,0.755,0.038,1.288,0.038c0.546,0,0.979-0.012,1.5-0.038
		c0.087,0.051,0.112,0.237,0.025,0.311l-0.186,0.025c-0.471,0.061-0.57,0.135-0.583,0.235c0.025,0.125,0.235,0.795,0.62,1.736
		c0.57,1.438,1.141,2.861,1.761,4.275c0.382-0.818,0.904-2.093,1.189-2.751c0.359-0.842,0.942-2.243,1.152-2.776
		c0.1-0.26,0.112-0.396,0.112-0.484c0-0.086-0.124-0.186-0.558-0.235l-0.223-0.025c-0.087-0.074-0.062-0.26,0.025-0.311
		c0.347,0.026,0.818,0.038,1.288,0.038c0.41,0,0.794-0.012,1.202-0.038c0.087,0.051,0.087,0.248,0.026,0.311l-0.372,0.025
		c-0.297,0.024-0.484,0.174-0.645,0.434c-0.347,0.582-0.83,1.588-1.388,2.85l-0.669,1.523c-0.496,1.143-1.078,2.578-1.289,3.236
		c-0.037,0.024-0.087,0.037-0.135,0.037c-0.063,0-0.125-0.013-0.187-0.037c-0.137-0.521-0.359-1.127-0.57-1.648L111.446,121.135z"/>
	<path style="clip-path:url(#SVGID_2_);fill:#FFFFFF;" d="M126.364,121.682c0-1.291-0.025-1.477-0.755-1.562l-0.199-0.026
		c-0.074-0.051-0.049-0.273,0.025-0.31c0.533,0.025,0.954,0.037,1.462,0.037h2.33c0.793,0,1.525,0,1.673-0.037
		c0.074,0.211,0.149,1.103,0.199,1.65c-0.05,0.074-0.248,0.098-0.31,0.023c-0.186-0.582-0.297-1.015-0.943-1.177
		c-0.259-0.063-0.656-0.075-1.202-0.075h-0.892c-0.37,0-0.37,0.026-0.37,0.497v2.478c0,0.348,0.037,0.348,0.407,0.348h0.721
		c0.518,0,0.903-0.026,1.051-0.075c0.151-0.05,0.237-0.125,0.299-0.435l0.1-0.508c0.06-0.074,0.27-0.074,0.321,0.012
		c0,0.299-0.051,0.783-0.051,1.254c0,0.445,0.051,0.918,0.051,1.187c-0.051,0.088-0.261,0.088-0.321,0.014l-0.114-0.482
		c-0.048-0.223-0.134-0.409-0.382-0.471c-0.174-0.051-0.473-0.063-0.954-0.063h-0.721c-0.37,0-0.407,0.012-0.407,0.336v1.746
		c0,0.657,0.037,1.078,0.233,1.287c0.15,0.149,0.41,0.286,1.501,0.286c0.955,0,1.313-0.049,1.587-0.186
		c0.223-0.123,0.557-0.557,0.878-1.201c0.088-0.063,0.262-0.026,0.31,0.088c-0.086,0.433-0.396,1.386-0.558,1.72
		c-1.115-0.023-2.217-0.037-3.32-0.037h-1.116c-0.533,0-0.954,0.014-1.686,0.037c-0.075-0.037-0.098-0.234-0.024-0.308l0.408-0.039
		c0.707-0.061,0.769-0.248,0.769-1.547V121.682z"/>
	<path style="clip-path:url(#SVGID_2_);fill:#FFFFFF;" d="M139.794,121.694c0-1.178-0.037-1.389-0.545-1.452l-0.397-0.048
		c-0.086-0.063-0.086-0.262,0.014-0.311c0.692-0.063,1.549-0.1,2.762-0.1c0.77,0,1.499,0.063,2.07,0.373
		c0.594,0.309,1.028,0.868,1.028,1.737c0,1.176-0.929,1.82-1.548,2.068c-0.062,0.074,0,0.199,0.061,0.299
		c0.991,1.598,1.649,2.59,2.492,3.295c0.211,0.185,0.521,0.322,0.855,0.346c0.063,0.025,0.074,0.125,0.012,0.173
		c-0.111,0.037-0.31,0.063-0.545,0.063c-1.054,0-1.686-0.311-2.564-1.561c-0.324-0.459-0.831-1.314-1.216-1.871
		c-0.186-0.273-0.385-0.396-0.88-0.396c-0.559,0-0.582,0.011-0.582,0.273v1.561c0,1.299,0.023,1.449,0.744,1.547l0.259,0.039
		c0.074,0.06,0.051,0.271-0.024,0.308c-0.557-0.023-0.979-0.037-1.475-0.037c-0.521,0-0.968,0.014-1.549,0.037
		c-0.074-0.037-0.1-0.222-0.025-0.308l0.309-0.039c0.719-0.086,0.744-0.248,0.744-1.547V121.694z M140.811,123.465
		c0,0.223,0,0.359,0.037,0.41c0.037,0.037,0.223,0.061,0.855,0.061c0.447,0,0.918-0.049,1.276-0.323
		c0.334-0.259,0.619-0.693,0.619-1.535c0-0.98-0.605-1.91-1.983-1.91c-0.767,0-0.804,0.049-0.804,0.397V123.465z"/>
	<path style="clip-path:url(#SVGID_2_);fill:#FFFFFF;" d="M154.771,128.199c-1.04,0-1.698-0.322-1.934-0.459
		c-0.148-0.273-0.308-1.152-0.334-1.734c0.063-0.088,0.248-0.112,0.299-0.037c0.185,0.632,0.693,1.845,2.131,1.845
		c1.04,0,1.55-0.679,1.55-1.424c0-0.546-0.113-1.154-1.017-1.734l-1.176-0.769c-0.622-0.411-1.34-1.116-1.34-2.131
		c0-1.178,0.918-2.133,2.528-2.133c0.384,0,0.829,0.074,1.153,0.16c0.161,0.051,0.333,0.074,0.433,0.074
		c0.111,0.299,0.223,0.992,0.223,1.514c-0.049,0.074-0.248,0.111-0.309,0.037c-0.161-0.596-0.495-1.402-1.686-1.402
		c-1.213,0-1.475,0.806-1.475,1.377c0,0.72,0.595,1.238,1.054,1.523l0.991,0.621c0.781,0.483,1.55,1.201,1.55,2.379
		C157.412,127.269,156.383,128.199,154.771,128.199"/>
	<path style="clip-path:url(#SVGID_2_);fill:#FFFFFF;" d="M165.835,121.705c0-1.314-0.023-1.525-0.755-1.586l-0.31-0.025
		c-0.075-0.051-0.049-0.274,0.025-0.311c0.621,0.026,1.04,0.037,1.561,0.037c0.497,0,0.917-0.011,1.539-0.037
		c0.074,0.037,0.099,0.26,0.023,0.311l-0.311,0.025c-0.729,0.061-0.754,0.272-0.754,1.586v4.412c0,1.313,0.025,1.486,0.754,1.572
		l0.311,0.039c0.076,0.049,0.051,0.272-0.023,0.309c-0.622-0.023-1.042-0.037-1.539-0.037c-0.521,0-0.94,0.014-1.561,0.037
		c-0.074-0.037-0.1-0.234-0.025-0.309l0.31-0.039c0.732-0.086,0.755-0.259,0.755-1.572V121.705z"/>
	<path style="clip-path:url(#SVGID_2_);fill:#FFFFFF;" d="M179.594,126.143c0,1.299,0.023,1.486,0.741,1.547l0.399,0.039
		c0.074,0.049,0.048,0.271-0.026,0.309c-0.707-0.024-1.128-0.038-1.624-0.038s-0.928,0.014-1.723,0.038
		c-0.075-0.038-0.098-0.249,0-0.309l0.447-0.039c0.706-0.061,0.768-0.248,0.768-1.547v-5.541c0-0.385,0-0.396-0.372-0.396h-0.681
		c-0.533,0-1.214,0.025-1.525,0.31c-0.296,0.273-0.421,0.545-0.557,0.856c-0.098,0.074-0.274,0.011-0.323-0.086
		c0.2-0.559,0.385-1.354,0.471-1.848c0.039-0.024,0.199-0.037,0.236,0c0.074,0.396,0.484,0.383,1.054,0.383h5.02
		c0.669,0,0.78-0.024,0.966-0.346c0.062-0.023,0.199-0.012,0.222,0.037c-0.137,0.508-0.222,1.512-0.185,1.885
		c-0.049,0.098-0.26,0.098-0.323,0.023c-0.037-0.308-0.125-0.767-0.309-0.904c-0.285-0.211-0.756-0.31-1.439-0.31h-0.879
		c-0.372,0-0.358,0.011-0.358,0.421V126.143z"/>
	<path style="clip-path:url(#SVGID_2_);fill:#FFFFFF;" d="M193.717,126.117c0,1.324,0.074,1.523,0.744,1.572l0.473,0.039
		c0.073,0.075,0.049,0.272-0.026,0.309c-0.769-0.024-1.191-0.037-1.686-0.037c-0.522,0-0.966,0.013-1.624,0.037
		c-0.074-0.037-0.1-0.234-0.026-0.309l0.387-0.039c0.718-0.074,0.741-0.248,0.741-1.572v-0.633c0-0.681-0.037-0.842-0.395-1.535
		l-1.462-2.852c-0.422-0.818-0.607-0.88-0.98-0.941l-0.347-0.062c-0.074-0.088-0.061-0.26,0.025-0.311
		c0.396,0.025,0.843,0.037,1.439,0.037c0.569,0,1.014-0.012,1.325-0.037c0.111,0.037,0.111,0.236,0.037,0.311l-0.16,0.025
		c-0.434,0.061-0.522,0.123-0.522,0.223c0,0.123,0.323,0.83,0.385,0.955c0.458,0.916,0.917,1.894,1.401,2.752
		c0.382-0.659,0.792-1.377,1.164-2.096c0.347-0.645,0.805-1.488,0.805-1.637c0-0.074-0.222-0.16-0.52-0.197l-0.223-0.025
		c-0.086-0.088-0.074-0.26,0.025-0.311c0.445,0.025,0.806,0.037,1.189,0.037c0.384,0,0.731-0.012,1.153-0.037
		c0.1,0.063,0.112,0.236,0.026,0.311l-0.348,0.062c-0.644,0.111-1.017,0.893-1.636,1.959l-0.78,1.35
		c-0.547,0.943-0.584,1.054-0.584,2.007V126.117z"/>
</g>
<g>
	<defs>
		<rect id="SVGID_3_" x="113.266" y="43.396" width="40.255" height="43.376"/>
	</defs>
	<clipPath id="SVGID_4_">
		<use xlink:href="#SVGID_3_"  style="overflow:visible;"/>
	</clipPath>
	<path style="clip-path:url(#SVGID_4_);fill:#FFFFFF;" d="M144.637,47.824c-0.032-0.061-1.955-1.013-1.955-1.013
		c-2.445-0.513-6.474-0.288-9.283,0.745h-0.01c-2.811-1.033-6.836-1.258-9.282-0.745c0,0-1.924,0.952-1.953,1.013l-2.98,6.576
		c-0.097,0.183,0.056,0.339,0.225,0.305c4.53-0.86,9.732-1.125,13.993-1.125h0.004c4.26,0,9.463,0.265,13.992,1.125
		c0.171,0.034,0.322-0.122,0.226-0.305L144.637,47.824z M132.69,52.559c-3.229-0.128-8.801-0.128-11.595,0.872l1.986-4.97
		l1.353-0.724l-1.437,4.094c2.911-0.55,6.131-0.755,9.701,0.413L132.69,52.559z M134.052,52.559v-0.315
		c3.568-1.168,6.79-0.963,9.7-0.413l-1.444-4.094l1.355,0.724l1.986,4.97C142.998,52.431,137.425,52.431,134.052,52.559"/>
	<path style="clip-path:url(#SVGID_4_);fill:#FFFFFF;" d="M151.865,45.366l-0.02-0.008l-0.127-0.029
		c-5.998-1.283-12.163-1.933-18.324-1.933c-6.164,0-12.337,0.652-18.346,1.937l-0.059,0.012l-0.056,0.018
		c-0.961,0.237-1.667,1.139-1.667,2.182l0.002,3.265c0,23.548,14.571,33.101,19.037,35.468c0.357,0.19,0.728,0.287,1.096,0.287
		c0.37,0,0.737-0.097,1.091-0.29c4.454-2.361,19.029-11.917,19.029-35.465v-3.265C153.521,46.527,152.835,45.633,151.865,45.366
		 M132.573,84.923c-4.924-2.717-14.813-10.424-17.37-26.224l0.12-0.025c5.63-1.189,11.43-1.813,17.25-1.868V84.923z M148.151,69.779
		c-0.003,0.004-0.006,0.012-0.009,0.017c-1.046,2.167-2.229,4.088-3.475,5.773c-0.003,0.003-0.003,0.004-0.004,0.004
		c-1.134,1.533-2.311,2.882-3.482,4.045v-6.37l-3.484-2.318v11.715c-1.295,0.977-2.488,1.731-3.481,2.278V68.611l3.481,2.319v-8.107
		l3.484,2.316v-7.994c1.164,0.103,2.326,0.223,3.482,0.372v9.94l3.479,2.316v-11.73c1.114,0.19,2.223,0.393,3.326,0.626l0.119,0.026
		C150.897,62.961,149.671,66.632,148.151,69.779 M134.216,60.503v-3.697c1.162,0.01,2.323,0.04,3.481,0.097v5.919L134.216,60.503z
		 M152.204,50.81c0,2.145-0.13,4.169-0.363,6.084c-12.082-2.552-24.793-2.552-36.892,0.006c-0.234-1.918-0.364-3.944-0.364-6.09
		l-0.002-3.266c0-0.443,0.305-0.814,0.718-0.917l0.022-0.007c5.828-1.247,11.873-1.908,18.071-1.908
		c6.191,0,12.228,0.66,18.046,1.903l0.014,0.005c0.431,0.088,0.752,0.469,0.752,0.924L152.204,50.81z"/>
	<polygon style="clip-path:url(#SVGID_4_);fill:#FFFFFF;" points="144.663,67.456 141.181,65.14 141.181,73.247 144.663,75.564 	"/>
	<path style="clip-path:url(#SVGID_4_);fill:#FFFFFF;" d="M125.123,72.565c3.514,0,6.374-2.859,6.374-6.373
		c0-3.515-2.86-6.374-6.374-6.374s-6.373,2.859-6.373,6.374C118.75,69.706,121.609,72.565,125.123,72.565 M126.284,71.638
		c0.491-0.531,1.077-1.307,1.52-2.315c0.614,0.132,1.14,0.296,1.571,0.459C128.59,70.71,127.511,71.377,126.284,71.638
		 M129.856,69.111c-0.471-0.191-1.061-0.39-1.769-0.549c0.188-0.593,0.317-1.248,0.354-1.969h2.232
		C130.606,67.513,130.317,68.368,129.856,69.111 M129.856,63.272c0.461,0.744,0.75,1.598,0.817,2.518h-2.232
		c-0.037-0.719-0.166-1.377-0.354-1.968C128.798,63.661,129.385,63.463,129.856,63.272 M129.374,62.6
		c-0.431,0.164-0.957,0.328-1.571,0.461c-0.443-1.011-1.029-1.784-1.52-2.316C127.511,61.006,128.59,61.674,129.374,62.6
		 M125.524,61.117c0.434,0.446,1.01,1.15,1.455,2.088c-0.449,0.065-0.934,0.107-1.455,0.122V61.117z M125.524,64.132
		c0.635-0.018,1.226-0.074,1.763-0.159c0.182,0.545,0.309,1.151,0.349,1.817h-2.112V64.132z M125.524,66.593h2.112
		c-0.04,0.665-0.167,1.271-0.353,1.817c-0.534-0.087-1.124-0.14-1.759-0.159V66.593z M125.524,69.056
		c0.52,0.016,1.003,0.058,1.45,0.122c-0.443,0.935-1.017,1.639-1.45,2.083V69.056z M120.872,69.782
		c0.431-0.163,0.959-0.327,1.573-0.46c0.444,1.01,1.032,1.787,1.524,2.318C122.736,71.379,121.658,70.711,120.872,69.782
		 M124.72,71.257c-0.433-0.449-1.003-1.151-1.446-2.08c0.447-0.063,0.929-0.105,1.446-0.121V71.257z M124.72,68.251
		c-0.634,0.019-1.22,0.072-1.754,0.157c-0.186-0.544-0.314-1.15-0.352-1.815h2.106V68.251z M124.72,65.79h-2.106
		c0.038-0.665,0.166-1.271,0.352-1.817c0.534,0.085,1.12,0.141,1.754,0.159V65.79z M124.72,63.327
		c-0.517-0.015-0.999-0.057-1.446-0.121c0.443-0.93,1.013-1.633,1.446-2.08V63.327z M123.969,60.743
		c-0.492,0.532-1.08,1.306-1.524,2.318c-0.614-0.133-1.142-0.299-1.572-0.462C121.659,61.672,122.737,61.004,123.969,60.743
		 M120.389,63.272c0.472,0.191,1.061,0.389,1.774,0.55c-0.19,0.591-0.318,1.249-0.355,1.968h-2.235
		C119.638,64.87,119.929,64.015,120.389,63.272 M119.574,66.593h2.235c0.037,0.72,0.165,1.376,0.353,1.968
		c-0.711,0.16-1.3,0.359-1.772,0.55C119.928,68.368,119.638,67.513,119.574,66.593"/>
</g>
<g>
	<defs>
		<rect id="SVGID_5_" x="43" y="93.168" width="180" height="24.58"/>
	</defs>
	<clipPath id="SVGID_6_">
		<use xlink:href="#SVGID_5_"  style="overflow:visible;"/>
	</clipPath>
	<path style="clip-path:url(#SVGID_6_);fill:#FFFFFF;" d="M48.148,97.578c0-3.159-0.283-3.5-1.963-3.643l-0.71-0.056
		c-0.171-0.114-0.114-0.626,0.057-0.711c1.649,0.056,2.616,0.085,3.811,0.085c1.139,0,2.106-0.029,3.244-0.085
		c0.17,0.085,0.227,0.597,0.057,0.711l-0.427,0.056c-1.678,0.229-1.735,0.625-1.735,3.643v10.555c0,2.246-0.115,4.209-0.654,5.517
		c-0.94,2.278-2.959,4.098-5.606,4.098c-0.34,0-1.222-0.029-1.222-0.598c0-0.484,0.425-1.31,1.023-1.31
		c0.342,0,0.684,0.056,1.054,0.172c0.398,0.113,0.796,0.199,1.194,0.199c0.598,0,0.94-0.342,1.139-0.74
		c0.654-1.338,0.738-5.604,0.738-7.141V97.578z"/>
	<path style="clip-path:url(#SVGID_6_);fill:#FFFFFF;" d="M52.584,104.277c0-4.799,3.601-8.472,8.544-8.472
		c5.544,0,8.328,4.008,8.328,8.232c0,4.848-3.696,8.375-8.328,8.375C55.801,112.412,52.584,108.597,52.584,104.277 M67.056,104.781
		c0-3.959-1.751-8.232-6.335-8.232c-2.497,0-5.736,1.705-5.736,6.961c0,3.55,1.728,8.16,6.455,8.16
		C64.321,111.67,67.056,109.51,67.056,104.781"/>
	<path style="clip-path:url(#SVGID_6_);fill:#FFFFFF;" d="M74.908,104.277c-1.152,0-1.2,0.049-1.2,0.77v3.382
		c0,2.52,0.12,2.856,1.464,3l0.695,0.073c0.145,0.095,0.096,0.527-0.047,0.599c-1.297-0.049-2.112-0.072-3.049-0.072
		c-1.031,0-1.847,0.049-2.783,0.072c-0.144-0.072-0.191-0.457-0.049-0.599l0.408-0.073c1.344-0.24,1.393-0.48,1.393-3v-8.64
		c0-2.52-0.168-2.927-1.416-3.024l-0.625-0.048c-0.144-0.096-0.095-0.528,0.049-0.6c1.176,0.023,1.992,0.072,3.023,0.072
		c0.937,0,1.752-0.023,2.784-0.072c0.144,0.072,0.193,0.504,0.048,0.6l-0.456,0.048c-1.391,0.144-1.439,0.504-1.439,3.024v2.761
		c0,0.743,0.048,0.768,1.2,0.768h6.864c1.152,0,1.201-0.025,1.201-0.768v-2.761c0-2.52-0.049-2.88-1.465-3.024l-0.455-0.048
		c-0.145-0.096-0.098-0.528,0.047-0.6c1.103,0.049,1.92,0.072,2.904,0.072c0.936,0,1.752-0.023,2.832-0.072
		c0.142,0.072,0.191,0.504,0.049,0.6l-0.506,0.048c-1.39,0.144-1.439,0.504-1.439,3.024v8.64c0,2.52,0.049,2.832,1.439,3
		l0.576,0.073c0.144,0.095,0.096,0.527-0.049,0.599c-1.15-0.049-1.966-0.072-2.902-0.072c-0.984,0-1.847,0.023-2.904,0.072
		c-0.145-0.072-0.192-0.457-0.047-0.599l0.455-0.073c1.465-0.24,1.465-0.48,1.465-3v-3.382c0-0.721-0.049-0.77-1.201-0.77H74.908z"
		/>
	<path style="clip-path:url(#SVGID_6_);fill:#FFFFFF;" d="M103.35,107.949c0,0.721,0,3.576,0.07,4.199
		c-0.047,0.145-0.191,0.264-0.455,0.264c-0.287-0.406-0.984-1.246-3.072-3.623l-5.568-6.336c-0.647-0.744-2.28-2.712-2.784-3.238
		h-0.046c-0.098,0.287-0.122,0.838-0.122,1.558v5.233c0,1.127,0.024,4.248,0.432,4.966c0.145,0.266,0.625,0.409,1.225,0.457
		l0.744,0.073c0.144,0.191,0.119,0.48-0.049,0.599c-1.08-0.048-1.92-0.072-2.807-0.072c-1.009,0-1.656,0.024-2.496,0.072
		c-0.168-0.119-0.191-0.457-0.049-0.599l0.649-0.073c0.551-0.072,0.935-0.216,1.057-0.48c0.333-0.863,0.31-3.791,0.31-4.943V99.07
		c0-0.673-0.023-1.178-0.527-1.728c-0.336-0.336-0.912-0.505-1.489-0.577l-0.408-0.047c-0.144-0.144-0.144-0.503,0.049-0.601
		c1.008,0.072,2.279,0.072,2.711,0.072c0.385,0,0.793-0.023,1.105-0.072c0.479,1.225,3.311,4.393,4.104,5.281l2.328,2.615
		c1.654,1.848,2.83,3.192,3.959,4.344h0.049c0.096-0.119,0.096-0.504,0.096-1.008v-5.136c0-1.128-0.024-4.247-0.481-4.968
		c-0.144-0.216-0.527-0.36-1.488-0.48l-0.408-0.047c-0.168-0.144-0.143-0.529,0.048-0.601c1.104,0.049,1.92,0.072,2.833,0.072
		c1.031,0,1.654-0.023,2.47-0.072c0.194,0.121,0.194,0.457,0.049,0.601l-0.336,0.047c-0.767,0.12-1.248,0.313-1.344,0.504
		c-0.408,0.864-0.359,3.84-0.359,4.944V107.949z"/>
	<path style="clip-path:url(#SVGID_6_);fill:#FFFFFF;" d="M109.693,112.412c-2.018,0-3.289-0.623-3.744-0.887
		c-0.289-0.529-0.602-2.232-0.649-3.359c0.12-0.17,0.481-0.217,0.577-0.072c0.359,1.222,1.343,3.576,4.127,3.576
		c2.015,0,3-1.321,3-2.76c0-1.057-0.215-2.232-1.969-3.361l-2.279-1.489c-1.2-0.791-2.592-2.16-2.592-4.127
		c0-2.28,1.777-4.127,4.896-4.127c0.744,0,1.608,0.144,2.233,0.311c0.31,0.098,0.646,0.145,0.837,0.145
		c0.217,0.575,0.434,1.92,0.434,2.927c-0.096,0.145-0.48,0.216-0.601,0.073c-0.311-1.153-0.959-2.713-3.264-2.713
		c-2.352,0-2.856,1.56-2.856,2.666c0,1.39,1.153,2.398,2.041,2.951l1.92,1.199c1.512,0.936,3,2.328,3,4.608
		C114.804,110.613,112.812,112.412,109.693,112.412"/>
	<path style="clip-path:url(#SVGID_6_);fill:#FFFFFF;" d="M129.049,102.841c-1.365,0-1.422,0.055-1.422,0.908v4.012
		c0,2.986,0.141,3.385,1.734,3.557l0.827,0.086c0.17,0.113,0.113,0.625-0.059,0.708c-1.535-0.056-2.502-0.083-3.611-0.083
		c-1.225,0-2.192,0.056-3.301,0.083c-0.172-0.083-0.229-0.539-0.057-0.708l0.483-0.086c1.593-0.286,1.65-0.571,1.65-3.557V97.519
		c0-2.987-0.199-3.471-1.678-3.584l-0.74-0.057c-0.17-0.113-0.113-0.626,0.057-0.711c1.394,0.028,2.361,0.085,3.586,0.085
		c1.109,0,2.076-0.028,3.299-0.085c0.171,0.085,0.228,0.598,0.056,0.711l-0.541,0.057c-1.648,0.172-1.705,0.597-1.705,3.584v3.272
		c0,0.882,0.057,0.909,1.422,0.909h8.137c1.365,0,1.422-0.027,1.422-0.909v-3.272c0-2.987-0.057-3.412-1.737-3.584l-0.541-0.057
		c-0.17-0.113-0.113-0.626,0.059-0.711c1.306,0.057,2.275,0.085,3.441,0.085c1.11,0,2.078-0.028,3.358-0.085
		c0.17,0.085,0.228,0.598,0.056,0.711l-0.597,0.057c-1.649,0.172-1.707,0.597-1.707,3.584v10.242c0,2.986,0.058,3.357,1.707,3.557
		l0.683,0.086c0.17,0.113,0.114,0.625-0.058,0.708c-1.364-0.056-2.332-0.083-3.442-0.083c-1.166,0-2.189,0.027-3.441,0.083
		c-0.172-0.083-0.229-0.539-0.059-0.708l0.541-0.086c1.737-0.286,1.737-0.571,1.737-3.557v-4.012c0-0.853-0.057-0.908-1.422-0.908
		H129.049z"/>
	<path style="clip-path:url(#SVGID_6_);fill:#FFFFFF;" d="M143.15,104.277c0-4.799,3.602-8.472,8.543-8.472
		c5.545,0,8.328,4.008,8.328,8.232c0,4.848-3.695,8.375-8.328,8.375C146.367,112.412,143.15,108.597,143.15,104.277
		 M157.621,104.781c0-3.959-1.75-8.232-6.336-8.232c-2.494,0-5.734,1.705-5.734,6.961c0,3.55,1.728,8.16,6.455,8.16
		C154.887,111.67,157.621,109.51,157.621,104.781"/>
	<path style="clip-path:url(#SVGID_6_);fill:#FFFFFF;" d="M164.365,108.429c0,2.52,0.049,2.832,1.584,3l0.648,0.072
		c0.145,0.119,0.098,0.528-0.048,0.6c-1.368-0.049-2.159-0.072-3.12-0.072c-1.007,0-1.871,0.023-2.927,0.072
		c-0.145-0.072-0.192-0.457-0.047-0.6l0.504-0.072c1.39-0.191,1.439-0.48,1.439-3v-8.855c0-2.041-0.049-2.449-1.129-2.569
		l-0.863-0.097c-0.168-0.143-0.145-0.503,0.049-0.599c1.271-0.169,2.76-0.193,4.75-0.193c1.992,0,3.48,0.264,4.609,0.961
		c1.104,0.696,1.92,1.944,1.92,3.599c0,2.208-1.367,3.314-2.4,3.817c-1.057,0.504-2.328,0.719-3.313,0.719
		c-0.168-0.07-0.168-0.431-0.023-0.478c2.592-0.481,3.527-1.946,3.527-4.033c0-2.329-1.367-3.839-3.863-3.839
		c-1.272,0-1.297,0.094-1.297,0.864V108.429z"/>
	<path style="clip-path:url(#SVGID_6_);fill:#FFFFFF;" d="M174.352,99.789c0-2.52-0.049-2.904-1.439-3.023l-0.602-0.048
		c-0.143-0.097-0.094-0.529,0.049-0.601c1.176,0.049,1.943,0.072,3.023,0.072c0.936,0,1.752-0.023,2.785-0.072
		c0.143,0.072,0.192,0.504,0.047,0.601l-0.455,0.048c-1.392,0.143-1.441,0.503-1.441,3.023v2.762c0,0.455,0.049,0.91,0.314,0.91
		c0.215,0,0.502-0.143,0.67-0.264c0.336-0.287,0.961-0.912,1.225-1.152l2.592-2.567c0.455-0.433,1.632-1.657,1.871-1.992
		c0.121-0.169,0.17-0.289,0.17-0.385c0-0.095-0.096-0.167-0.409-0.239l-0.648-0.144c-0.168-0.169-0.145-0.48,0.047-0.601
		c0.84,0.049,1.801,0.072,2.64,0.072c0.84,0,1.657-0.023,2.375-0.072c0.17,0.121,0.194,0.457,0.049,0.601
		c-0.623,0.048-1.558,0.288-2.23,0.672c-0.672,0.383-2.018,1.511-3.362,2.784l-2.16,2.039c-0.336,0.338-0.552,0.553-0.552,0.744
		c0,0.17,0.144,0.361,0.457,0.744c2.279,2.615,4.127,4.776,6,6.744c0.576,0.576,1.013,0.889,1.828,0.985l0.463,0.072
		c0.17,0.119,0.121,0.527-0.049,0.6c-0.623-0.049-1.281-0.073-2.41-0.073c-0.983,0-1.825,0.024-2.928,0.073
		c-0.168-0.049-0.24-0.458-0.096-0.6l0.551-0.098c0.338-0.047,0.576-0.119,0.576-0.238c0-0.145-0.168-0.336-0.336-0.553
		c-0.457-0.576-1.08-1.224-1.992-2.256l-1.92-2.16c-1.367-1.535-1.752-2.015-2.328-2.015c-0.359,0-0.408,0.312-0.408,1.152v3.096
		c0,2.519,0.049,2.855,1.392,3l0.649,0.072c0.142,0.096,0.096,0.527-0.049,0.6c-1.176-0.049-1.992-0.073-2.928-0.073
		c-0.984,0-1.799,0.024-2.783,0.073c-0.144-0.073-0.193-0.432-0.049-0.6l0.481-0.072c1.271-0.192,1.32-0.481,1.32-3V99.789z"/>
	<path style="clip-path:url(#SVGID_6_);fill:#FFFFFF;" d="M190.824,99.837c0-2.544-0.047-2.953-1.465-3.072l-0.598-0.048
		c-0.144-0.097-0.097-0.528,0.047-0.601c1.2,0.049,2.016,0.073,3.024,0.073c0.961,0,1.777-0.024,2.976-0.073
		c0.145,0.073,0.192,0.504,0.049,0.601l-0.601,0.048c-1.416,0.119-1.463,0.528-1.463,3.072v8.543c0,2.545,0.047,2.881,1.463,3.049
		l0.601,0.072c0.143,0.096,0.096,0.527-0.049,0.6c-1.199-0.049-2.015-0.073-2.976-0.073c-1.008,0-1.733,0.024-2.932,0.073
		c-0.144-0.073-0.191-0.457-0.047-0.6l0.506-0.072c1.418-0.168,1.465-0.504,1.465-3.049V99.837z"/>
	<path style="clip-path:url(#SVGID_6_);fill:#FFFFFF;" d="M211.584,107.949c0,0.721,0,3.576,0.074,4.199
		c-0.049,0.145-0.193,0.264-0.457,0.264c-0.287-0.406-0.984-1.246-3.072-3.623l-5.568-6.336c-0.647-0.744-2.28-2.712-2.784-3.238
		h-0.047c-0.097,0.287-0.121,0.838-0.121,1.558v5.233c0,1.127,0.024,4.248,0.432,4.966c0.145,0.266,0.625,0.409,1.225,0.457
		l0.744,0.073c0.142,0.191,0.119,0.48-0.049,0.599c-1.08-0.048-1.92-0.072-2.807-0.072c-1.008,0-1.656,0.024-2.496,0.072
		c-0.168-0.119-0.193-0.457-0.049-0.599l0.649-0.073c0.551-0.072,0.935-0.216,1.056-0.48c0.336-0.863,0.311-3.791,0.311-4.943V99.07
		c0-0.673-0.023-1.178-0.527-1.728c-0.336-0.336-0.912-0.505-1.489-0.577l-0.408-0.047c-0.144-0.144-0.144-0.503,0.049-0.601
		c1.008,0.072,2.279,0.072,2.711,0.072c0.385,0,0.793-0.023,1.105-0.072c0.481,1.225,3.311,4.393,4.102,5.281l2.33,2.615
		c1.656,1.848,2.83,3.192,3.959,4.344h0.049c0.096-0.119,0.096-0.504,0.096-1.008v-5.136c0-1.128-0.024-4.247-0.481-4.968
		c-0.144-0.216-0.527-0.36-1.486-0.48l-0.408-0.047c-0.17-0.144-0.145-0.529,0.046-0.601c1.104,0.049,1.92,0.072,2.832,0.072
		c1.034,0,1.657-0.023,2.471-0.072c0.194,0.121,0.194,0.457,0.049,0.601l-0.336,0.047c-0.768,0.12-1.248,0.313-1.344,0.504
		c-0.408,0.864-0.361,3.84-0.361,4.944V107.949z"/>
	<path style="clip-path:url(#SVGID_6_);fill:#FFFFFF;" d="M217.889,112.412c-2.018,0-3.289-0.623-3.746-0.887
		c-0.287-0.529-0.6-2.232-0.649-3.359c0.122-0.17,0.483-0.217,0.577-0.072c0.361,1.222,1.345,3.576,4.129,3.576
		c2.015,0,3-1.321,3-2.76c0-1.057-0.217-2.232-1.969-3.361l-2.278-1.489c-1.201-0.791-2.593-2.16-2.593-4.127
		c0-2.28,1.775-4.127,4.896-4.127c0.744,0,1.608,0.144,2.233,0.311c0.312,0.098,0.646,0.145,0.837,0.145
		c0.217,0.575,0.434,1.92,0.434,2.927c-0.098,0.145-0.48,0.216-0.601,0.073c-0.311-1.153-0.959-2.713-3.262-2.713
		c-2.354,0-2.858,1.56-2.858,2.666c0,1.39,1.153,2.398,2.039,2.951l1.922,1.199c1.512,0.936,3,2.328,3,4.608
		C223,110.613,221.008,112.412,217.889,112.412"/>
</g>
</svg>
